HIERARCHY
ROOT Hips
{
  OFFSET -213.699 104.721 0.752556
  CHANNELS 6 Xposition Yposition Zposition Zrotation Xrotation Yrotation
  JOINT RightUpLeg
  {
    OFFSET -8.9458 -8.66707 0.101652
    CHANNELS 3 Zrotation Xrotation Yrotation
    JOINT RightLeg
    {
      OFFSET 0 -44.4227 1.3727
      CHANNELS 3 Zrotation Xrotation Yrotation
      JOINT RightFoot
      {
        OFFSET 0.253549 -42.0924 -1.46059
        CHANNELS 3 Zrotation Xrotation Yrotation
        JOINT RightToes
        {
          OFFSET 0.04 -4.41509 8.4991
          CHANNELS 3 Zrotation Xrotation Yrotation
          End Site
          {
            OFFSET -0.08 -0.137448 9.77979
          }
        }
      }
    }
  }
  JOINT Spine
  {
    OFFSET 0 11.8905 0
    CHANNELS 3 Zrotation Xrotation Yrotation
    JOINT Spine1
    {
      OFFSET 0 25.6574 0.127663
      CHANNELS 3 Zrotation Xrotation Yrotation
      JOINT HEad
      {
        OFFSET 0 8.73416 0.011341
        CHANNELS 3 Zrotation Xrotation Yrotation
        End Site
        {
          OFFSET -0.29 12.7742 2.51395
        }
      }
      JOINT LeftShoulder1
      {
        OFFSET 8.99 -0.362252 -0.22
        CHANNELS 3 Zrotation Xrotation Yrotation
        JOINT LeftArm
        {
          OFFSET 10.2827 -0.00337999 0.322123
          CHANNELS 3 Zrotation Xrotation Yrotation
          JOINT LeftForeArm
          {
            OFFSET 26.2597 0.099144 -1.42434
            CHANNELS 3 Zrotation Xrotation Yrotation
            JOINT LeftHand
            {
              OFFSET 22.0902 0.085362 1.02216
              CHANNELS 3 Zrotation Xrotation Yrotation
              End Site
              {
                OFFSET 13.419 -0.6 1.50291
              }
            }
          }
        }
      }
      JOINT RightShoulder
      {
        OFFSET -8.99 -0.362252 -0.22
        CHANNELS 3 Zrotation Xrotation Yrotation
        JOINT RightArm
        {
          OFFSET -10.2827 -0.00338 0.322123
          CHANNELS 3 Zrotation Xrotation Yrotation
          JOINT RightForeArm
          {
            OFFSET -26.364 0.099144 -1.42434
            CHANNELS 3 Zrotation Xrotation Yrotation
            JOINT RightHand
            {
              OFFSET -22.0324 0.085362 1.02216
              CHANNELS 3 Zrotation Xrotation Yrotation
              End Site
              {
                OFFSET -13.3284 -0.6 1.50291
              }
            }
          }
        }
      }
    }
  }
  JOINT LeftUpLeg
  {
    OFFSET 8.9458 -8.66707 0.101652
    CHANNELS 3 Zrotation Xrotation Yrotation
    JOINT LeftLeg
    {
      OFFSET 0 -44.4227 1.3727
      CHANNELS 3 Zrotation Xrotation Yrotation
      JOINT LeftFoot
      {
        OFFSET -0.253549 -42.0924 -1.46059
        CHANNELS 3 Zrotation Xrotation Yrotation
        JOINT LeftToes
        {
          OFFSET -0.04 -4.41509 8.4991
          CHANNELS 3 Zrotation Xrotation Yrotation
          End Site
          {
            OFFSET 0.08 -0.047448 9.77979
          }
        }
      }
    }
  }
}
MOTION
Frames:	12
Frame Time:	0.0333333
-96.1438 113.447 -89.6784 -0.253189 1.30255 90.1456 1.34881 -0.708143 -0.635546 -0.552233 8.92136 -18.1841 1.04978 -18.9759 -0.141418 0.0462048 0.000530889 0.662642 -3.68976 1.69221 -1.10268 2.49819 6.59286 -1.71969 1.3346 1.28305 -6.74395 -28.521 -3.14542 12.5761 -69.3275 -58.4732 -43.9237 -33.3759 86.3189 38.9602 5.58871 9.31487 -8.84685 24.4021 -0.614609 -6.21801 40.1258 -37.939 15.0135 -2.46271 33.5757 10.0661 -1.33513 9.85352 5.39914 0.190979 -2.79251 2.22978 1.04066 10.6745 17.4487 -6.42508 -19.0921 -0.556739 -1.36231e-009 8.75215e-006 -1.46938e-008 
-96.0711 113.443 -89.6963 -0.329353 1.25979 90.1131 1.40379 -0.73001 -0.564564 -0.584208 8.88208 -18.2268 1.05861 -18.9823 -0.14025 0.0462048 0.000530889 0.662642 -3.65777 1.69884 -1.12027 2.44326 6.56465 -1.72005 1.39263 1.15943 -6.76391 -27.9643 -3.05182 12.4461 -67.7525 -59.7356 -44.072 -21.361 84.8253 27.0666 5.36754 9.34299 -8.82348 23.8176 -0.550433 -6.05445 38.1762 -39.0053 13.6426 -2.95649 30.8689 10.6651 -1.4359 9.84553 5.05032 0.212019 -2.87056 2.22168 1.07007 10.7683 17.4823 -6.44027 -19.1783 -0.562831 -1.36231e-009 8.75215e-006 -1.46938e-008 
-95.931 113.431 -89.7221 -0.453577 1.18782 90.0488 1.5109 -0.778699 -0.425404 -0.66008 8.87648 -18.3124 1.11424 -19.0303 -0.134762 0.0462048 0.000530889 0.662642 -3.63752 1.70937 -1.13341 2.352 6.5798 -1.71449 1.57754 0.771286 -6.85599 -26.8069 -2.85383 12.1519 -64.458 -62.143 -44.0316 -10.9015 81.5012 16.8037 5.02767 9.39121 -8.64201 22.7191 -0.47869 -5.90014 34.3405 -40.9885 11.1192 -3.71339 26.5584 11.4421 -1.69961 9.82263 4.87855 0.258788 -2.98619 2.22673 1.10464 10.9323 17.5316 -6.48109 -19.3534 -0.576337 -1.36231e-009 8.75215e-006 -1.46938e-008 
-95.7977 113.414 -89.7464 -0.568505 1.12075 89.9267 1.61057 -0.86568 -0.293973 -0.734472 8.95446 -18.3286 1.18902 -19.1106 -0.126832 0.0462048 0.000530889 0.662642 -3.6968 1.75984 -1.11124 2.35767 6.58902 -1.69551 1.68497 0.304923 -6.93902 -25.5742 -2.6403 11.806 -60.607 -64.6027 -43.3556 -6.0996 77.7515 12.1906 4.8254 9.42506 -8.36624 21.61 -0.450681 -5.8896 30.3016 -42.9721 8.54812 -4.34716 23.2111 11.9953 -1.93378 9.79964 5.17073 0.321076 -3.09304 2.26548 1.10581 11.1111 17.6023 -6.54713 -19.554 -0.594029 -1.36231e-009 8.75215e-006 -1.46938e-008 
-95.709 113.398 -89.7714 -0.673833 1.05985 89.7547 1.68094 -0.98041 -0.200542 -0.774823 9.04023 -18.2466 1.20388 -19.1684 -0.125072 0.0462048 0.000530889 0.662642 -3.83614 1.90397 -1.07277 2.50715 6.46664 -1.69378 1.54568 0.0126765 -6.8585 -24.5185 -2.45994 11.4944 -56.9219 -66.7054 -42.0667 -3.52616 74.4786 9.78358 4.7209 9.444 -8.16537 20.7081 -0.426256 -5.87347 26.7121 -44.6848 6.14136 -4.79623 21.1184 12.506 -2.03342 9.78624 5.65545 0.389427 -3.20661 2.32534 1.08136 11.282 17.7011 -6.61482 -19.7253 -0.610559 -1.36231e-009 8.75215e-006 -1.46938e-008 
-95.6471 113.389 -89.7958 -0.767279 1.00355 89.5948 1.73459 -1.06427 -0.132804 -0.792241 9.05439 -18.1536 1.13718 -19.1831 -0.131892 0.0462048 0.000530889 0.662642 -3.98982 2.11834 -1.05076 2.67502 6.25013 -1.71375 1.29926 -0.0804287 -6.60213 -23.5119 -2.29706 11.2058 -53.2069 -68.4965 -40.144 -1.57242 71.8753 7.86366 4.51413 9.47175 -8.05041 19.9873 -0.381835 -5.76623 23.3741 -46.3409 3.74951 -5.096 19.5669 13.0757 -2.09906 9.77729 5.93457 0.443854 -3.30624 2.3697 1.06934 11.408 17.8119 -6.65419 -19.8375 -0.620954 -1.36231e-009 8.75215e-006 -1.46938e-008 
-95.584 113.385 -89.8171 -0.835811 0.960332 89.4714 1.77828 -1.09361 -0.0793081 -0.809315 9.02539 -18.0947 1.05581 -19.1889 -0.140316 0.0462048 0.000530889 0.662642 -4.0822 2.29481 -1.04111 2.71215 6.11086 -1.71608 1.16996 -0.0726242 -6.33159 -22.4846 -2.12948 10.8858 -49.1275 -69.9398 -37.5589 -0.281165 69.9242 6.4549 4.2033 9.51006 -7.97285 19.3996 -0.355565 -5.71316 20.342 -47.9205 1.64187 -5.29863 18.1556 13.5218 -2.2001 9.76853 5.83234 0.468891 -3.35884 2.38125 1.08403 11.4776 17.9331 -6.66197 -19.905 -0.625613 -1.36231e-009 8.75215e-006 -1.46938e-008 
-95.5286 113.381 -89.837 -0.90101 0.928508 89.3505 1.80951 -1.1323 -0.0346439 -0.82705 9.01615 -18.0288 1.02534 -19.2022 -0.143299 0.0462048 0.000530889 0.662642 -4.0857 2.35748 -1.02334 2.62254 6.10435 -1.67906 1.13025 0.078723 -6.1854 -21.6917 -1.98618 10.5739 -45.4074 -70.8816 -35.0723 0.267668 68.6731 5.74115 3.9742 9.53675 -7.96425 18.969 -0.371011 -5.80816 18.0276 -49.1107 0.121594 -5.40973 17.1782 13.7988 -2.31507 9.76052 5.55493 0.484093 -3.41294 2.38853 1.09363 11.5429 18.0618 -6.65853 -19.9665 -0.628761 -1.36231e-009 8.75215e-006 -1.46938e-008 
-95.5015 113.377 -89.8571 -0.996238 0.894556 89.2308 1.83931 -1.22622 0.0170994 -0.843405 9.01168 -17.9564 1.04503 -19.1941 -0.141158 0.0462048 0.000530889 0.662642 -4.02852 2.35221 -1.00705 2.51286 6.11046 -1.63649 1.02652 0.498456 -6.1489 -21.3535 -1.91699 10.4062 -43.189 -71.3254 -33.806 0.320228 68.0551 5.58478 3.89929 9.54402 -8.01815 18.6865 -0.39217 -5.91563 16.3761 -49.9628 -1.15457 -5.42119 17.2263 14.1938 -2.41709 9.75282 5.39609 0.524398 -3.53436 2.42816 1.06594 11.6442 18.1506 -6.65692 -20.0374 -0.632163 -1.36231e-009 8.75215e-006 -1.46938e-008 
-95.4933 113.375 -89.8746 -1.09055 0.864566 89.159 1.87107 -1.31649 0.0737516 -0.863523 8.98321 -17.9324 1.08596 -19.1636 -0.137335 0.0462048 0.000530889 0.662642 -3.96601 2.36502 -1.01775 2.42963 6.05022 -1.62688 0.885121 1.21378 -6.13089 -21.3567 -1.92268 10.4255 -42.6994 -71.3826 -33.9168 0.267491 67.8638 5.55447 3.89845 9.54314 -8.05678 18.5288 -0.395665 -5.94375 15.2205 -50.8416 -2.42262 -5.45808 18.4832 14.878 -2.52109 9.74306 5.40249 0.578428 -3.66408 2.48811 1.01375 11.7323 18.1636 -6.6562 -20.0961 -0.635575 -1.36231e-009 8.75215e-006 -1.46938e-008 
-95.4836 113.373 -89.8893 -1.12225 0.861904 89.1414 1.87819 -1.34528 0.0993758 -0.89029 8.98516 -17.9448 1.13746 -19.1616 -0.131851 0.0462048 0.000530889 0.662642 -3.94749 2.36849 -1.0574 2.34707 6.02471 -1.64682 0.820901 2.28533 -6.09309 -21.4994 -1.95012 10.4904 -43.4727 -71.1158 -34.702 0.299234 67.9683 5.38506 3.9507 9.5365 -8.07891 18.5826 -0.417338 -6.02487 15.0225 -51.7206 -3.06452 -5.64659 20.3424 15.6177 -2.59882 9.73502 5.46063 0.593832 -3.69825 2.51977 0.975097 11.7518 18.1496 -6.63996 -20.1233 -0.637711 -1.36231e-009 8.75215e-006 -1.46938e-008 
-95.4796 113.371 -89.9067 -1.10197 0.880989 89.1338 1.85046 -1.35475 0.0811046 -0.90319 9.06069 -17.9289 1.18944 -19.2011 -0.126979 0.0462048 0.000530889 0.662642 -3.9927 2.24756 -1.1098 2.28512 6.15604 -1.68294 0.769759 4.00715 -6.08103 -21.7995 -1.97353 10.5037 -45.4278 -70.5213 -35.9312 0.232271 68.4397 5.34868 4.13826 9.51307 -8.13619 18.9679 -0.48016 -6.23521 16.1687 -51.9672 -2.58203 -5.78945 21.9437 16.0951 -2.5735 9.73616 5.55186 0.563677 -3.67397 2.50906 0.965732 11.7522 18.1695 -6.61344 -20.1329 -0.63933 -1.36231e-009 8.75215e-006 -1.46938e-008 
